PathFileType   4   (X/Y/Z)
DataRate	CameraRate	NumFrames	NumMarkers	Units	OrigDataRate	OrigDataStartFrame	OrigNumFrames
120.0	120.0	10	37	mm	120.0	1	161
Frame#	Time	midhip	hip_r	hip_l	knee_r	knee_l	ankle_r	ankle_l	midasis	asis_r	asis_l	psis_r	psis_l	epicondLat_r	epicondLat_l	epicondMed_r	epicondMed_l	malleolusLat_r	malleolusLat_l	malleolusMedv_r	malleolusMedv_l	neck	subclavicle_r	subclavicle_l	sternalnotch	xyphoidprocess	thighwand_r	thighwand_l	upperleg1_r	upperleg1_l	upperleg2_r	upperleg2_l	shankwand_r	shankwand_l	lowerleg1_r	lowerleg1_l	toe_r	toe_l
 	 	X1	Y1	Z1	X2	Y2	Z2	X3	Y3	Z3	X4	Y4	Z4	X5	Y5	Z5	X6	Y6	Z6	X7	Y7	Z7	X8	Y8	Z8	X9	Y9	Z9	X10	Y10	Z10	X11	Y11	Z11	X12	Y12	Z12	X13	Y13	Z13	X14	Y14	Z14	X15	Y15	Z15	X16	Y16	Z16	X17	Y17	Z17	X18	Y18	Z18	X19	Y19	Z19	X20	Y20	Z20	X21	Y21	Z21	X22	Y22	Z22	X23	Y23	Z23	X24	Y24	Z24	X25	Y25	Z25	X26	Y26	Z26	X27	Y27	Z27	X28	Y28	Z28	X29	Y29	Z29	X30	Y30	Z30	X31	Y31	Z31	X32	Y32	Z32	X33	Y33	Z33	X34	Y34	Z34	X35	Y35	Z35	X36	Y36	Z36	X37	Y37	Z37

	1	0.27500	1405.287	837.789	-285.313	1402.245	818.252	-220.951	1405.838	820.419	-338.348	1384.444	437.683	-182.100	1484.829	471.012	-310.058	1096.014	172.185	-218.662	1452.515	65.665	-307.859	1462.007	900.238	-270.420	1450.458	897.095	-170.344	1473.556	903.381	-370.495	1302.467	925.808	-265.022	1308.527	927.596	-319.911	1379.539	443.473	-127.626	1509.897	472.764	-358.419	1398.859	430.176	-237.377	1462.177	453.334	-275.728	1083.467	180.952	-183.336	1468.007	64.239	-343.075	1123.013	175.137	-244.712	1467.948	78.021	-278.265	1367.720	1340.230	-262.250	1461.714	1262.804	-212.153	1464.821	1263.340	-319.375	1448.869	1274.825	-271.119	1494.927	1105.433	-269.767	1533.214	610.085	-164.510	1565.981	657.036	-268.490	1450.664	661.916	-141.618	1516.185	683.485	-352.001	1441.028	576.714	-137.726	1531.323	597.990	-340.236	1159.080	270.805	-103.572	1463.292	178.465	-416.538	1172.734	272.286	-143.409	1462.838	186.042	-374.136	1152.223	76.281	-188.508	1583.368	38.426	-291.230
	2	0.28333	1410.684	838.096	-285.812	1407.661	818.572	-221.633	1411.119	820.651	-339.035	1395.851	437.920	-180.627	1488.307	470.856	-310.479	1105.407	176.029	-219.905	1452.698	65.793	-307.811	1467.228	900.620	-271.233	1455.797	897.538	-171.154	1478.658	903.702	-371.312	1307.667	925.874	-265.348	1313.720	927.686	-320.394	1390.856	443.940	-126.187	1513.115	472.370	-358.982	1410.571	429.927	-235.747	1465.823	453.426	-276.010	1092.690	184.845	-184.651	1468.087	64.208	-343.066	1133.196	178.383	-245.579	1468.158	78.040	-278.256	1372.709	1340.587	-262.849	1466.622	1263.124	-212.666	1469.832	1263.608	-319.962	1453.856	1275.127	-271.694	1499.800	1105.708	-270.214	1542.386	612.462	-163.868	1570.809	656.571	-269.702	1459.305	662.812	-141.444	1520.657	683.132	-353.041	1450.777	577.751	-137.019	1535.388	597.570	-341.204	1168.748	273.730	-104.256	1464.112	178.384	-416.663	1182.729	275.157	-144.127	1463.893	185.990	-374.234	1161.060	80.111	-186.836	1583.436	38.383	-291.256
	3	0.29167	1416.119	838.470	-286.276	1413.059	818.906	-222.297	1416.350	820.879	-339.706	1407.126	438.313	-179.189	1491.696	470.702	-310.877	1115.335	179.335	-221.041	1452.865	65.908	-307.745	1472.415	901.010	-272.058	1461.132	898.004	-171.984	1483.698	904.015	-372.133	1312.836	925.936	-265.619	1318.873	927.780	-320.835	1402.048	444.555	-124.781	1516.203	471.969	-359.541	1422.583	429.907	-234.232	1469.427	453.455	-276.321	1102.361	188.277	-185.913	1468.142	64.170	-343.042	1143.686	180.849	-246.308	1468.334	77.989	-278.210	1377.339	1340.907	-263.375	1471.281	1263.358	-213.019	1474.725	1263.895	-320.483	1458.724	1275.450	-272.224	1504.634	1105.980	-270.658	1551.453	614.925	-163.270	1575.631	656.035	-270.986	1467.808	663.980	-141.268	1525.041	682.754	-354.006	1460.536	578.941	-136.353	1539.353	597.115	-342.189	1178.517	276.571	-105.000	1464.870	178.300	-416.771	1192.908	277.902	-144.862	1464.823	185.897	-374.311	1170.569	83.696	-185.033	1583.496	38.346	-291.276
	4	0.30000	1421.497	838.815	-286.678	1418.448	819.252	-222.932	1421.538	821.099	-340.348	1418.284	438.849	-177.798	1494.995	470.555	-311.258	1125.795	182.054	-222.014	1453.025	66.012	-307.666	1477.574	901.405	-272.885	1466.467	898.492	-172.819	1488.681	904.317	-372.951	1317.975	925.995	-265.841	1323.976	927.866	-321.223	1413.116	445.303	-123.423	1519.169	471.568	-360.093	1434.479	430.196	-232.897	1472.900	453.477	-276.466	1112.491	191.188	-187.059	1468.180	64.126	-343.008	1154.620	182.866	-246.971	1468.458	77.911	-278.154	1382.005	1341.168	-263.867	1476.015	1263.686	-213.478	1479.490	1264.308	-320.982	1463.494	1275.788	-272.717	1509.559	1106.389	-271.248	1560.389	617.458	-162.692	1580.429	655.439	-272.313	1476.111	665.374	-141.053	1529.338	682.296	-354.948	1470.106	580.264	-135.723	1543.184	596.594	-343.148	1188.424	279.259	-105.750	1465.569	178.212	-416.869	1203.334	280.322	-145.533	1465.638	185.798	-374.401	1180.720	86.952	-183.156	1583.552	38.310	-291.295
	5	0.30833	1426.786	839.105	-287.025	1423.828	819.604	-223.525	1426.687	821.306	-340.950	1429.340	439.513	-176.465	1498.197	470.412	-311.627	1136.764	184.163	-222.780	1453.191	66.106	-307.582	1482.705	901.802	-273.698	1471.802	898.999	-173.642	1493.608	904.605	-373.755	1323.083	926.054	-266.022	1329.015	927.933	-321.548	1424.070	446.165	-122.124	1522.019	471.171	-360.639	1445.902	430.642	-231.651	1476.252	453.500	-276.592	1123.083	193.537	-188.035	1468.211	64.080	-342.973	1166.043	184.502	-247.423	1468.562	77.848	-278.099	1386.905	1341.415	-264.376	1480.742	1264.107	-213.996	1484.185	1264.711	-321.439	1468.181	1276.134	-273.183	1514.284	1106.803	-271.718	1569.173	620.047	-162.124	1585.185	654.794	-273.656	1484.158	666.713	-140.704	1533.533	681.818	-355.931	1479.349	581.602	-135.047	1546.899	596.030	-344.132	1198.513	281.713	-106.448	1466.206	178.123	-416.964	1213.929	282.395	-146.131	1466.397	185.718	-374.504	1191.490	89.807	-181.253	1583.606	38.271	-291.315
	6	0.31667	1432.028	839.390	-287.350	1429.197	819.959	-224.065	1431.796	821.498	-341.498	1440.309	440.290	-175.195	1501.296	470.265	-311.989	1148.201	185.667	-223.307	1453.371	66.196	-307.496	1487.805	902.198	-274.485	1477.130	899.518	-174.435	1498.480	904.878	-374.535	1328.158	926.116	-266.171	1333.984	927.975	-321.805	1434.923	447.123	-120.888	1524.751	470.773	-361.181	1457.408	430.979	-229.881	1479.551	453.549	-276.688	1134.119	195.300	-188.794	1468.244	64.037	-342.941	1177.881	185.580	-247.615	1468.726	77.817	-278.058	1391.732	1341.617	-264.832	1485.233	1264.448	-214.370	1488.851	1265.053	-321.886	1472.793	1276.491	-273.635	1518.800	1107.131	-272.079	1577.796	622.678	-161.561	1589.880	654.112	-274.996	1491.934	668.055	-140.149	1537.628	681.373	-356.882	1488.545	582.971	-134.076	1550.524	595.496	-345.091	1208.827	283.847	-107.036	1466.788	178.038	-417.065	1224.786	284.192	-146.595	1467.071	185.670	-374.585	1202.854	92.213	-179.364	1583.662	38.228	-291.341
	7	0.32500	1437.112	839.550	-287.697	1434.547	820.314	-224.544	1436.859	821.674	-341.985	1451.203	441.163	-173.989	1504.284	470.100	-312.348	1160.052	186.586	-223.586	1453.571	66.283	-307.412	1492.871	902.589	-275.234	1482.446	900.046	-175.187	1503.296	905.133	-375.281	1333.196	926.181	-266.301	1338.879	927.994	-321.992	1445.688	448.158	-119.715	1527.363	470.364	-361.719	1468.674	431.517	-228.016	1482.779	453.612	-276.670	1145.572	196.469	-189.309	1468.287	64.001	-342.916	1189.976	186.164	-247.624	1468.935	77.827	-278.044	1396.203	1341.880	-265.232	1489.929	1264.843	-214.828	1493.360	1265.421	-322.329	1477.336	1276.855	-274.084	1523.629	1107.558	-272.538	1586.255	625.337	-161.003	1594.497	653.400	-276.322	1499.655	669.565	-139.484	1541.656	680.923	-357.730	1497.664	584.400	-133.008	1554.067	594.975	-345.951	1219.397	285.584	-107.465	1467.322	177.963	-417.177	1235.894	285.709	-146.848	1467.724	185.657	-374.680	1214.789	94.142	-177.509	1583.723	38.183	-291.378
	8	0.33333	1442.042	839.592	-288.040	1439.870	820.666	-224.961	1441.873	821.835	-342.410	1462.023	442.115	-172.848	1507.155	469.908	-312.705	1172.263	186.950	-223.619	1453.787	66.373	-307.333	1497.898	902.973	-275.939	1487.742	900.576	-175.891	1508.053	905.370	-375.988	1338.196	926.251	-266.418	1343.703	927.993	-322.110	1456.373	449.251	-118.606	1529.851	469.936	-362.254	1479.222	432.311	-226.226	1485.848	453.691	-276.730	1157.407	197.046	-189.565	1468.341	63.975	-342.895	1202.273	186.350	-247.431	1469.151	77.870	-278.041	1400.508	1342.174	-265.616	1494.570	1265.243	-215.311	1497.728	1265.784	-322.771	1481.811	1277.213	-274.524	1528.384	1107.991	-273.020	1594.553	628.012	-160.459	1599.021	652.662	-277.633	1507.387	671.158	-138.824	1545.664	680.502	-358.530	1506.522	585.936	-131.968	1557.546	594.452	-346.788	1230.242	286.861	-107.697	1467.822	177.902	-417.305	1247.039	286.877	-146.942	1468.383	185.664	-374.812	1227.270	95.584	-175.698	1583.789	38.136	-291.427
	9	0.34167	1446.953	839.669	-288.342	1445.156	821.015	-225.319	1446.832	821.984	-342.774	1472.762	443.127	-171.774	1509.911	469.689	-313.056	1184.785	186.790	-223.414	1454.010	66.466	-307.255	1502.879	903.347	-276.600	1493.008	901.104	-176.545	1512.751	905.589	-376.654	1343.153	926.324	-266.524	1348.459	927.981	-322.166	1466.976	450.385	-117.563	1532.217	469.488	-362.782	1489.603	433.335	-224.920	1488.908	453.714	-276.978	1169.589	197.041	-189.558	1468.402	63.958	-342.876	1214.842	186.141	-247.046	1469.400	77.949	-278.033	1404.900	1342.422	-265.949	1498.930	1265.578	-215.738	1502.117	1266.183	-323.277	1486.220	1277.559	-274.957	1532.859	1108.380	-273.568	1602.696	630.692	-159.949	1603.442	651.898	-278.928	1514.980	672.699	-138.198	1549.586	680.084	-359.383	1515.178	587.580	-131.123	1560.976	593.944	-347.703	1241.370	287.636	-107.706	1468.296	177.857	-417.447	1258.445	287.563	-146.837	1468.976	185.700	-374.977	1240.272	96.547	-173.928	1583.860	38.089	-291.488
	10	0.35000	1451.800	839.728	-288.615	1450.394	821.358	-225.626	1451.727	822.123	-343.087	1483.410	444.184	-170.767	1512.559	469.449	-313.403	1197.576	186.133	-222.984	1454.232	66.561	-307.177	1507.811	903.710	-277.220	1498.236	901.626	-177.156	1517.385	905.793	-377.283	1348.066	926.400	-266.614	1353.158	927.964	-322.166	1477.498	451.547	-116.583	1534.472	469.029	-363.302	1500.429	434.501	-223.992	1491.996	453.613	-277.347	1182.088	196.470	-189.287	1468.463	63.949	-342.855	1227.688	185.509	-246.461	1469.649	78.035	-278.027	1409.312	1342.670	-266.210	1503.241	1265.875	-216.150	1506.502	1266.609	-323.763	1490.576	1277.894	-275.391	1537.261	1108.757	-274.182	1610.692	633.366	-159.495	1607.754	651.107	-280.204	1522.416	674.231	-137.602	1553.364	679.622	-360.244	1523.879	589.317	-130.438	1564.322	593.403	-348.671	1252.776	287.885	-107.484	1468.748	177.828	-417.598	1270.276	287.678	-146.491	1469.597	185.784	-375.193	1253.768	97.048	-172.189	1583.935	38.042	-291.558
